<?xml version="1.0" encoding="UTF-8"?>
<!DOCTYPE svg PUBLIC "-//W3C//DTD SVG 1.1 Tiny//EN" "http://www.w3.org/Graphics/SVG/1.1/DTD/svg11-tiny.dtd">
<svg xmlns="http://www.w3.org/2000/svg" xmlns:xlink="http://www.w3.org/1999/xlink" baseProfile="tiny" height="567.887" viewBox="0 0 579.09 567.887" width="579.09">
<g/>
<g>
<polyline fill="none" points="579.09,0 579.09,567.887 0,567.887 "/>
<path d="M39.84,280.747c1.43-61.897,52.316-143.391,59.25-153.75     c52.393-57.607,137.5-88,187.656-89.954c139.004-2.816,250.49,108.517,249.156,245.954     c-1.438,148.125-122.313,231.25-247.313,243.5c-86.5-0.5-146.5-54-159.5-65.5C74.51,416.449,38.127,354.938,39.84,280.747z" fill="#FFFFFF" fill-rule="evenodd"/>
<g>
<path d="M255.473,306.095c40.563,16.264,87.696,48.814,129.18,112.797c14.143,21.815,28.088,44.154,41.377,65.989      c-38.482,25.365-84.573,40.128-134.111,40.128c-12.999,0-25.76-1.017-38.209-2.974h1.764V318.181l-10.063-5.551L255.473,306.095      z M255.473,280.52c50.752,7.666,109.547,29.559,164.904,81.114c30.633,28.53,58.199,41.705,79.184,47.584      c-8.431,13.624-18.164,26.356-29.027,38.023l-10.063,6.536l7.165-9.07c-17.463-15.4-37.21-35.114-59.59-59.983      c-51.605-57.343-106.998-82.002-152.572-91.716v-3.07l-10.063-2.883L255.473,280.52z M100.967,129.092      c44.704-56.116,113.627-92.083,190.951-92.083c134.759,0,244,109.241,244,244c0,19.77-2.352,38.99-6.789,57.396      c-2.129,3.618-4.842,6.788-8.335,9.248c-0.541,0.381-1.101,0.744-1.679,1.091l-8.718,5.663l2.024-2.767      c-16.852,4.934-45.439-1.904-94.029-33.106c-58.026-37.263-114.77-50.454-162.92-52.442V182.7l-10.063-0.973l10.063-6.536      H384.99v-46.1H100.967z M203.337,296.097v51.425l-10.064,6.535l-0.808-15.341l0.373-0.104      c-8.223-5.343-17.545-8.015-27.967-8.015h-34.8c-4.601,0-8.649-1.699-12.149-5.1s-5.25-7.4-5.25-12      c0-3.084,0.722-5.878,2.166-8.384l-3.762,0.071l9.453-6.137c2.861-1.967,6.043-2.951,9.542-2.951H203.337z M174.809,397.017      l-0.637,0.414C174.387,397.298,174.598,397.16,174.809,397.017z M47.918,281.009c0-35.165,56.053-14.611,45.854-4.412      c-10.2,10.2-15.301,22.5-15.301,36.9c0,14.2,5.101,26.4,15.301,36.6c10.199,10.2,22.4,15.301,36.6,15.301h34.801      c4.799,0,8.899,1.699,12.299,5.1c3.4,3.4,5.101,7.4,5.101,12c0,4.8-1.7,8.9-5.101,12.3c-0.844,0.845-1.731,1.585-2.662,2.22      c-0.211,0.144-0.422,0.281-0.637,0.414l-9.76,6.341l2.922-3.995c-0.704,0.081-1.425,0.121-2.162,0.121H78.789      C59.125,364.72,47.918,324.174,47.918,281.009z M193.272,514.969l0.001-10.722c-32.871-14.546-61.928-36.14-85.254-62.864      l-15.936-0.45l10.064-6.535h62.723c10.607,0,20.074-2.74,28.402-8.22l-0.001-2.005l10.064-6.535v6.88l0.003,72.651      l-0.003,11.264L193.272,514.969z"/>
<linearGradient gradientUnits="userSpaceOnUse" id="XMLID_10_" x1="132.3174" x2="476.2704" y1="132.3989" y2="347.3246">
<stop offset="0" style="stop-color:#575757"/>
<stop offset="0.6786" style="stop-color:#C4C4C4"/>
<stop offset="0.9674" style="stop-color:#575757"/>
<stop offset="1" style="stop-color:#575757"/>
</linearGradient>
<path d="M100.967,129.092c44.704-56.116,113.627-92.083,190.951-92.083c134.759,0,244,109.241,244,244      c0,19.77-2.352,38.99-6.789,57.396c-2.129,3.618-4.842,6.788-8.335,9.248c-0.541,0.381-1.101,0.744-1.679,1.091l-8.718,5.663      l2.024-2.767C495.57,356.574,390.09,122.997,390.09,122.997L100.967,129.092z M174.809,397.017l-0.637,0.414      C174.387,397.298,174.598,397.16,174.809,397.017z" fill="url(#XMLID_10_)"/>
<g>
<linearGradient gradientUnits="userSpaceOnUse" id="XMLID_11_" x1="245.4092" x2="398.5898" y1="181.0942" y2="181.0942">
<stop offset="0" style="stop-color:#575757"/>
<stop offset="1" style="stop-color:#C4C4C4"/>
<stop offset="1" style="stop-color:#C4C4C4"/>
</linearGradient>
<polygon fill="url(#XMLID_11_)" points="398.59,186.997 245.409,181.727 255.473,175.191 384.99,175.191 390.09,175.997 "/>
<linearGradient gradientUnits="userSpaceOnUse" id="XMLID_12_" x1="397.7012" x2="363.0309" y1="395.5605" y2="330.3552">
<stop offset="0" style="stop-color:#575757"/>
<stop offset="0.5036" style="stop-color:#C4C4C4"/>
<stop offset="0.9837" style="stop-color:#575757"/>
<stop offset="1" style="stop-color:#575757"/>
</linearGradient>
<path d="M255.473,280.52c50.752,7.666,109.547,29.559,164.904,81.114       c30.633,28.53,58.199,41.705,79.184,47.584c-8.431,13.624-18.164,26.356-29.027,38.023l-10.063,6.536l7.165-9.07       c-17.463-15.4-37.21-35.114-59.59-59.983c-51.605-57.343-106.998-82.002-152.572-91.716v-3.07l-10.063-2.883L255.473,280.52z" fill="url(#XMLID_12_)"/>
<linearGradient gradientUnits="userSpaceOnUse" id="XMLID_13_" x1="347.2773" x2="261.5942" y1="518.6484" y2="342.972">
<stop offset="0" style="stop-color:#575757"/>
<stop offset="0.5705" style="stop-color:#C4C4C4"/>
<stop offset="1" style="stop-color:#5A5A5A"/>
</linearGradient>
<path d="M255.473,306.095c40.563,16.264,87.696,48.814,129.18,112.797       c14.143,21.815,28.088,44.154,41.377,65.989c-38.482,25.365-84.573,40.128-134.111,40.128c-12.999,0-25.76-1.017-38.209-2.974       h1.764V318.181l-10.063-5.551L255.473,306.095z" fill="url(#XMLID_13_)"/>
<linearGradient gradientUnits="userSpaceOnUse" id="XMLID_14_" x1="57.4326" x2="204.0881" y1="256.5791" y2="188.1925">
<stop offset="0" style="stop-color:#000000"/>
<stop offset="0.9825" style="stop-color:#C4C4C4"/>
<stop offset="1" style="stop-color:#C4C4C4"/>
</linearGradient>
<path d="M68.746,182.214l-6.846-0.495l10.094-6.527h131.343v86.105l-10.064,6.536l-0.202-6.536h-62.699       c-14.199,0-26.4,5.101-36.6,15.3C83.571,286.797,55.356,212.416,68.746,182.214z" fill="url(#XMLID_14_)"/>
<linearGradient gradientUnits="userSpaceOnUse" id="XMLID_15_" x1="52.1885" x2="178.0164" y1="328.6465" y2="339.655">
<stop offset="0" style="stop-color:#000000"/>
<stop offset="0.7673" style="stop-color:#C4C4C4"/>
<stop offset="1" style="stop-color:#636363"/>
</linearGradient>
<path d="M47.918,281.009c0-35.165,56.053-14.611,45.854-4.412c-10.2,10.2-15.301,22.5-15.301,36.9       c0,14.2,5.101,26.4,15.301,36.6c10.199,10.2,22.4,15.301,36.6,15.301h34.801c4.799,0,8.899,1.699,12.299,5.1       c3.4,3.4,5.101,7.4,5.101,12c0,4.8-1.7,8.9-5.101,12.3c-0.844,0.845-1.731,1.585-2.662,2.22       c-0.211,0.144-0.422,0.281-0.637,0.414l-9.76,6.341l2.922-3.995c-0.704,0.081-1.425,0.121-2.162,0.121H78.789       C59.125,364.72,47.918,324.174,47.918,281.009z" fill="url(#XMLID_15_)"/>
<linearGradient gradientUnits="userSpaceOnUse" id="XMLID_16_" x1="121.1201" x2="204.5525" y1="293.8604" y2="331.0068">
<stop offset="0" style="stop-color:#000000"/>
<stop offset="0.753" style="stop-color:#C4C4C4"/>
<stop offset="1" style="stop-color:#777777"/>
</linearGradient>
<path d="M203.337,296.097v51.425l-10.064,6.535l-0.808-15.341l0.373-0.104       c-8.223-5.343-17.545-8.015-27.967-8.015h-34.8c-4.601,0-8.649-1.699-12.149-5.1s-5.25-7.4-5.25-12       c0-3.084,0.722-5.878,2.166-8.384l-3.762,0.071l9.453-6.137c2.861-1.967,6.043-2.951,9.542-2.951H203.337z" fill="url(#XMLID_16_)"/>
<linearGradient gradientUnits="userSpaceOnUse" id="XMLID_17_" x1="106.5967" x2="206.9012" y1="423.5391" y2="470.3118">
<stop offset="0" style="stop-color:#000000"/>
<stop offset="0.6862" style="stop-color:#C4C4C4"/>
<stop offset="1" style="stop-color:#484848"/>
</linearGradient>
<path d="M193.272,514.969l0.001-10.722c-32.871-14.546-61.928-36.14-85.254-62.864l-15.936-0.45       l10.064-6.535h62.723c10.607,0,20.074-2.74,28.402-8.22l-0.001-2.005l10.064-6.535v6.88l0.003,72.651l-0.003,11.264       L193.272,514.969z" fill="url(#XMLID_17_)"/>
<linearGradient gradientUnits="userSpaceOnUse" id="XMLID_18_" x1="84.6328" x2="479.1937" y1="430.6768" y2="144.0115">
<stop offset="0" style="stop-color:#00438D"/>
<stop offset="0.1934" style="stop-color:#00438D"/>
<stop offset="0.7216" style="stop-color:#1B8DF0"/>
<stop offset="1" style="stop-color:#57ABF4"/>
</linearGradient>
<path d="M245.409,312.63c40.563,16.265,87.696,48.814,129.179,112.798       c14.144,21.814,28.088,44.153,41.377,65.988c-38.482,25.366-84.572,40.129-134.111,40.129c-12.998,0-25.76-1.017-38.208-2.975       h1.764V312.63z M245.409,287.055c50.751,7.667,109.546,29.56,164.903,81.115c30.633,28.529,58.2,41.704,79.184,47.583       c-8.43,13.624-18.164,26.357-29.026,38.024c-18.169-15.754-38.862-36.264-62.489-62.518       c-51.605-57.343-106.998-82.003-152.571-91.716V287.055z M90.902,135.628c44.705-56.117,113.627-92.083,190.951-92.083       c134.76,0,244,109.24,244,244c0,19.77-2.352,38.989-6.789,57.396c-11.331,19.265-39.575,25.824-110.735-19.871       c-58.026-37.263-114.77-50.454-162.92-52.442v-90.901h129.518v-46.099H90.902z M193.272,424.173v90.796       c-39.896-15.551-74.692-41.297-101.188-74.036h62.723c14.4,0,26.701-5.05,36.9-15.15       C192.243,425.252,192.766,424.716,193.272,424.173z M193.272,302.633v51.424c-0.507-0.547-1.029-1.088-1.565-1.624       c-10.199-10.2-22.5-15.3-36.9-15.3h-34.799c-4.601,0-8.65-1.7-12.15-5.101c-3.5-3.399-5.25-7.399-5.25-12       c0-4.8,1.75-8.899,5.25-12.3c3.5-3.399,7.55-5.1,12.15-5.1H193.272z M37.854,287.545c0-37.914,8.646-73.809,24.076-105.818       h131.343v86.106h-72.966c-14.199,0-26.399,5.1-36.6,15.3c-10.199,10.2-15.3,22.5-15.3,36.899c0,14.2,5.101,26.4,15.3,36.601       c10.2,10.2,22.4,15.3,36.6,15.3h34.801c4.8,0,8.9,1.7,12.3,5.1c3.399,3.4,5.101,7.4,5.101,12c0,4.801-1.701,8.9-5.101,12.301       c-3.399,3.399-7.5,5.1-12.3,5.1H68.726C49.062,371.256,37.854,330.709,37.854,287.545z" fill="url(#XMLID_18_)"/>
</g>
</g>
</g>
<g/>
</svg>
